<svg width="129" height="36" viewBox="0 0 129 36" fill="none" xmlns="http://www.w3.org/2000/svg">
<path d="M25.3921 30.528C23.4134 30.528 22.3292 31.5435 22.1396 33.5747C21.9927 35.143 21.13 35.9608 19.5517 35.9865C18.475 36.0057 17.3951 36.0025 16.3184 35.9865C14.6251 35.9608 13.8072 35.1719 13.7081 33.5074C13.5356 30.5312 13.5324 30.56 10.4588 30.5183C9.12972 30.4991 7.71435 30.8423 6.57694 29.7326C5.85168 29.027 5.42995 28.2381 5.45551 27.2022C5.48426 26.038 5.46509 24.8738 5.45551 23.7064C5.44912 22.7122 5.03696 22.1285 3.94429 22.2087C3.4906 22.2439 3.03372 22.2183 2.57684 22.2087C0.918652 22.1734 0.0368406 21.3107 0.0144759 19.6782C-0.00149899 18.5141 -0.00788892 17.3467 0.0144759 16.1825C0.0464255 14.7457 0.912262 13.8669 2.32763 13.7835C5.45231 13.5943 5.57691 13.5879 5.42356 10.5219C5.20949 6.27246 6.791 5.18203 10.4844 5.46426C10.609 5.47388 10.7336 5.46426 10.8582 5.46426C13.2448 5.44502 13.8295 5.89402 13.7177 2.70934C13.6602 0.916554 14.6187 0.0313875 16.3887 0.0121447C17.4654 -0.000683818 18.5453 -0.00709807 19.622 0.0121447C21.2067 0.0410088 22.0725 0.903726 22.1396 2.47522C22.2642 5.46747 22.2706 5.58934 25.2515 5.4386C29.7021 5.2141 30.7021 6.85615 30.4338 10.6502C30.4114 10.9805 30.4593 11.3173 30.4274 11.6476C30.1973 13.9375 31.5105 14.1427 33.0792 13.9728C34.8109 13.7835 35.7949 14.5501 35.8652 16.3204C35.9067 17.3595 35.8876 18.4018 35.8716 19.4409C35.846 21.3171 35.0026 22.183 33.1559 22.2536C31.3411 22.3241 30.4327 23.2649 30.4306 25.0758C30.4306 25.6595 30.437 26.24 30.4306 26.8237C30.405 29.2323 29.1334 30.5151 26.7627 30.5312C26.3059 30.5312 25.849 30.5312 25.3953 30.5312L25.3921 30.528ZM17.9127 30.4766C18.7018 30.4766 19.491 30.4959 20.277 30.4734C21.3505 30.4414 21.9927 29.9795 21.932 28.7897C21.8936 28.0424 21.9032 27.292 21.9224 26.5415C21.9863 23.8475 23.5614 22.2215 26.2292 22.1028C26.9736 22.0708 27.7212 22.1125 28.4689 22.0932C29.7852 22.0579 30.3539 21.5095 30.3794 20.1946C30.4082 18.6969 30.4018 17.1991 30.3794 15.7014C30.3603 14.4442 29.8203 13.9503 28.52 13.9054C27.5263 13.8733 26.5263 13.8926 25.5423 13.7868C23.6221 13.5815 22.3633 12.3628 22.1173 10.4225C21.9927 9.43789 22.047 8.43085 22.0214 7.43344C21.9831 6.03834 21.5134 5.53802 20.1651 5.51878C18.6731 5.49954 17.1778 5.50275 15.6858 5.51878C14.4461 5.53161 13.8423 6.08003 13.772 7.31477C13.7209 8.2288 13.772 9.14604 13.756 10.0601C13.7145 12.0228 12.3822 13.5494 10.4301 13.7739C9.40449 13.8926 8.36293 13.8669 7.32776 13.9022C6.02101 13.9503 5.52579 14.425 5.50982 15.7207C5.49065 17.2184 5.49385 18.7161 5.50982 20.2138C5.5226 21.5769 6.01462 22.0515 7.40444 22.09C8.35654 22.1157 9.31822 22.0644 10.2607 22.1766C12.4333 22.4332 13.7369 23.9341 13.7592 26.1085C13.7688 26.9809 13.7369 27.8564 13.7656 28.7288C13.8072 29.8641 14.3822 30.4831 15.5548 30.4734C16.344 30.467 17.1299 30.4734 17.9191 30.4734L17.9127 30.4766Z" fill="#31A8E6"/>
<path d="M62.55 22.3655C62.55 18.7896 62.5723 15.2137 62.5308 11.6409C62.5212 10.8455 62.7608 10.4799 63.5244 10.2266C66.4957 9.24198 69.5086 8.59094 72.6556 8.72884C78.0232 8.96617 81.4258 12.7762 81.084 18.1642C80.6814 24.4855 76.2212 28.0774 69.9367 27.141C68.614 26.9443 67.9537 27.5237 67.9558 28.8792C67.9558 30.3353 67.8824 31.7945 67.9782 33.2441C68.0453 34.2383 67.6076 34.4532 66.7737 34.45C65.7801 34.4468 64.7832 34.45 63.7928 34.5366C62.8599 34.62 62.5084 34.3827 62.5276 33.3403C62.5979 29.6842 62.5564 26.0249 62.5532 22.3655H62.55ZM67.9495 17.9493C67.9495 18.8217 67.9335 19.6972 67.9495 20.5696C68.0006 22.9749 67.4862 22.4393 70.039 22.9428C70.4415 23.023 70.8665 22.9941 71.2786 22.9877C73.4448 22.9685 74.9464 21.8524 75.4033 19.7485C76.266 15.7845 74.9976 12.1829 69.5917 13.2156C69.3073 13.2701 69.0198 13.3118 68.7322 13.3471C68.1507 13.4209 67.8983 13.6935 67.9271 14.3317C67.9814 15.5344 67.9431 16.7435 67.9431 17.9493H67.9495Z" fill="#404D67"/>
<path d="M107.861 20.0982C107.861 21.8044 107.842 23.5106 107.871 25.2136C107.88 25.746 107.749 26.0635 107.197 26.2046C103.149 27.2341 99.0685 27.8466 94.9119 26.9775C91.6083 26.2848 89.9821 24.2675 90.1514 21.1469C90.2568 19.1842 91.2249 17.7955 92.9917 16.9456C95.4966 15.7429 98.142 15.9033 100.797 16.0957C101.343 16.1342 102.164 16.673 102.388 15.8776C102.621 15.0438 102.343 14.1169 101.484 13.6038C100.717 13.1452 99.8385 13.065 98.9695 13.0169C97.0909 12.911 95.2378 13.1644 93.4262 13.6038C92.6403 13.7962 92.5157 13.5364 92.4038 12.8886C91.8383 9.58204 91.8256 9.57242 95.1771 9.05286C97.6436 8.67121 100.12 8.51406 102.596 8.98551C105.919 9.61732 107.65 11.5608 107.81 14.9796C107.89 16.6826 107.823 18.3888 107.823 20.095H107.861V20.0982ZM99.698 23.4272C100.593 23.3566 101.129 23.2861 101.663 23.2829C102.209 23.2797 102.51 23.1161 102.481 22.5003C102.449 21.7563 102.468 21.009 102.478 20.265C102.481 19.9026 102.308 19.7679 101.96 19.7294C100.321 19.5466 98.682 19.2964 97.0429 19.7358C96.1643 19.9699 95.5317 20.4574 95.5157 21.4292C95.4966 22.4779 96.1835 23.0103 97.1068 23.1931C98.0749 23.3855 99.0622 23.5234 99.698 23.4304V23.4272Z" fill="#404D67"/>
<path d="M51.1311 27.2533C46.198 27.2597 42.69 24.8608 41.5462 20.7364C39.8592 14.6429 43.8434 9.09134 50.1374 8.74817C53.751 8.54933 57.0418 9.25169 59.3166 12.3498C61.5531 15.3933 61.7671 18.7865 60.208 22.1443C58.7 25.3964 55.898 26.9614 52.3739 27.2501C51.9618 27.2854 51.5464 27.2533 51.1311 27.2533ZM51.1758 23.0327C53.9011 23.0359 55.7031 21.0475 55.6967 18.0488C55.6903 15.0309 53.9203 13.0361 51.2205 13.004C48.4729 12.9752 46.6166 15.0181 46.623 18.0617C46.6294 21.0122 48.4761 23.0263 51.1758 23.0295V23.0327Z" fill="#404D67"/>
<path d="M110.308 18.7128C110.308 16.3427 110.315 13.9694 110.302 11.5994C110.302 11.1183 110.318 10.7398 110.88 10.5282C114.858 9.03366 118.928 8.17735 123.165 9.02404C126.168 9.62377 127.913 11.7758 127.967 14.845C128.031 18.546 127.97 22.2502 128.002 25.9513C128.008 26.6087 127.81 26.8172 127.159 26.7947C125.916 26.7498 124.67 26.7434 123.427 26.7947C122.695 26.8268 122.526 26.5382 122.532 25.855C122.564 22.7762 122.551 19.6974 122.545 16.6185C122.539 13.5076 121.836 12.8405 118.794 13.0265C116.764 13.1505 115.749 14.2239 115.749 16.2465C115.749 19.4087 115.727 22.5709 115.765 25.73C115.775 26.5221 115.586 26.846 114.74 26.7947C113.542 26.7242 112.334 26.7434 111.133 26.7915C110.478 26.8172 110.283 26.6023 110.292 25.948C110.327 23.5363 110.305 21.1213 110.305 18.7096L110.308 18.7128Z" fill="#404D67"/>
<path d="M88.1162 13.3698C88.1162 17.4011 88.0651 21.4357 88.1481 25.4671C88.1737 26.628 87.7999 26.8878 86.7519 26.8012C85.6816 26.7146 84.5985 26.7531 83.5218 26.7948C82.8988 26.8205 82.6592 26.6569 82.6624 25.9738C82.6847 17.6994 82.6816 9.42501 82.6624 1.15383C82.6624 0.518823 82.8285 0.284702 83.4867 0.271874C84.6848 0.249424 85.8893 0.178867 87.081 0.0313393C87.9181 -0.0712887 88.1418 0.191696 88.1322 1.01913C88.0938 5.13388 88.1162 9.25183 88.1162 13.3666V13.3698Z" fill="#404D67"/>
</svg>
