<?xml version="1.0" encoding="UTF-8"?>
<svg id="Layer_2" data-name="Layer 2" xmlns="http://www.w3.org/2000/svg" viewBox="0 0 78.65 50.54">
  <defs>
    <style>
      .cls-1 {
        fill: #3c4458;
      }
    </style>
  </defs>
  <g id="Layer_1-2" data-name="Layer 1">
    <g>
      <path class="cls-1" d="M57.8,32.89c4.32,2.79,1.7,8.86-3.12,7.25-.32,2.09-2.35,3.57-4.43,3.26-.22,0-.62-.33-.69,.05-.16,2.31-2.83,3.8-4.94,3.05-.25,2.28-2.54,3.87-4.76,3.38-1.21-.25-2.09-1.36-3.11-1.99-1.91,3.64-6.17,3.58-7.4-.48-1.93,.33-3.9-1.14-4.22-3.08-1.95,.46-3.86-1.19-4.32-3.03-2.11,.37-4.44-1.65-4.21-3.83,.2-1.82,1.74-3.08,2.68-4.58-1.44-1.13-.9-1.86-2.05-.49-2.05,1.52-4.26-1.07-6.15-1.85-3.17-1.68-6.28-3.5-9.42-5.25-3.17-1.31-.96-2.45-.18-4.66,1.57-2.96,3.18-5.92,4.67-8.93,1.58-2.87,3-5.81,4.58-8.68,.92-1.57,1.15-3.96,3.42-2.27,3.4,2,6.81,4.01,10.27,5.92,2.06,1.36,5.77,2.42,3.67,5.52,1.25-.22,2.41,.23,3.52,.22,1.95-1.43,4.46-1.79,6.72-2.53,3.95-.84,7.73,2.77,11.7,1.34-1.3-2.32-.51-3.75,1.94-4.59,2.02-.92,4.03-1.81,6.04-2.77,2.25-.94,4.41-2.05,6.65-2.99,1.45-.66,2.91-1.8,3.5,.46,3.48,7.28,6.87,14.65,10.34,21.94,.9,1.72-2.65,2.21-3.68,3.02-3.1,1.36-6.11,2.94-9.21,4.25-1.79,.79-4.45,2.95-6.02,.77-.64,.4-1.13,1.16-1.79,1.57Zm-30.09,.21c1.81,.32,3.66,2.08,3.29,3.99-.12,.22-.02,.41,.22,.41,1.86,.24,3.44,2.08,3.13,3.98-.02,.38,.38,.35,.64,.37,.87,.31,1.75,.83,2.23,1.65,1.5,2.54-1.01,2.21,3.08,4.53,2.06,.54,3.32-2.38,1.54-3.53-2.93-1.76-1.25-3.64,.12-2.38,1.2,.87,2.15,2.29,3.62,2.68,1.18,.16,2.3-.82,2.14-2.04-.12-2.2-3.72-2.65-3.75-4.79,.16-.47,.95-.86,1.39-.49,2.03,1.27,5.95,6.88,7.44,2.31-.09-2.63-4.2-3.59-5.09-5.81-.02-1.04,1.22-1.25,1.84-.6,1.5,1.43,3.13,2.74,4.68,4.12,.52,.4,1.01,.99,1.73,.97,1.32,.18,2.37-1.05,2.12-2.34-.98-2.37-13.52-10.64-11.81-13.13,.91-.73,1.89,1.24,2.63,1.69,2.35,2.41,4.74,4.78,7.35,6.89,3.83-2.27,1.69-3.05,.43-6.32-1.91-4.1-3.83-8.19-5.8-12.26-3.71,1.38-7.36-.69-10.99-1.35-2.34,.28-4.81,1.03-6.88,2.13-2.49,2.23-2.99,6.83-4.44,9.86,1.89,.69,4.19-.35,5.02-2.15,.62-1.36,.45-3.04,1.56-4.18,1.88-2.36,5.83-.58,7.49,1.26,.73,.94,2.16,1.58,2.42,2.77-.03,.93-1.14,1.23-1.72,.55-1.55-1.4-2.86-3.4-5.11-3.63-.48-.13-1.08-.37-1.45,.1-1.16,1.17-.76,3.08-1.72,4.42-1.08,1.76-3.1,2.98-5.18,2.95-1.34,.03-4.26-.43-3.26-2.34,1.18-3.09,2.18-6.23,3.5-9.26-2.61-.12-3.09-.41-4.18,2.14-1.34,2.54-2.73,5.07-4.02,7.65-.97,1.89-2.03,3.77-2.97,5.65-.4,.11,1.28,1.57,1.48,1.72,1-1.71,2.7-3.4,4.85-2.62,1.68,.71,3.11,2.57,2.42,4.43ZM66.45,2.13c-3.9,1.79-7.75,3.6-11.68,5.3-2.67,1.44-4.3,.98-2.28,4.41,2.83,6.02,5.57,12.1,8.54,18.03,1,.96,2.54-.72,3.67-.93,3.81-1.84,7.66-3.62,11.51-5.4,.46-.24-.19-.9-.29-1.24-.89-1.83-1.66-3.73-2.61-5.53-2.22-4.92-4.56-9.78-6.86-14.65ZM2.27,23.5c4.48,2.37,8.84,4.99,13.32,7.38,.96,.22,1.4-2,1.89-2.65,1.44-2.65,2.82-5.38,4.25-8.05,1.61-3.04,3.19-6.12,4.79-9.16,.73-.88-.73-1.29-1.31-1.7-4.05-2.25-8.01-4.67-12.06-6.91-3.52,7.07-7.53,14.02-10.88,21.08Zm16.26,14.24s-.04,0-.07,.01c.12,.8,.78,1.56,1.62,1.63,1.83,.07,2.43-2.4,3.56-3.54,1.16-1.7,4.2-4.6,.56-5.44-1.61,.2-2.13,2.21-3.16,3.26-.74,1.39-2.3,2.5-2.51,4.08Zm10.55-1.01c.12-.83-.77-1.52-1.5-1.7-1.73-.13-2.31,2.14-3.32,3.21-.54,.95-2.05,2.12-1.31,3.29,.55,.73,1.48,1.31,2.36,.77,1.03-.95,1.7-2.27,2.57-3.39,.43-.71,1.3-1.28,1.2-2.19Zm-2.02,7.18c-.08,1.1,1.4,1.98,2.4,1.53,.78-.51,1.19-1.41,1.76-2.12,.39-.71,1.12-1.31,1.27-2.14,.16-1.01-.85-1.86-1.82-1.84-1.19,.04-1.61,1.38-2.26,2.16-.48,.76-1.4,1.43-1.35,2.4Zm6.03,4.8c1.22-.21,1.69-1.48,2.39-2.35,1.01-1-.04-2.75-1.34-2.69-1.38-.03-2.33,2.03-2.86,3.1-.13,1.01,.89,1.74,1.81,1.94Z"/>
      <path class="cls-1" d="M7.51,19.59c1.02-2.48,2.6-4.8,3.73-7.27,.76-.9,1.28-3.87,2.85-2.46,.83,.99-2.63,5.46-3.01,6.89-.61,1.08-1.21,2.18-1.78,3.27-.39,.93-1.82,.51-1.79-.43Z"/>
      <path class="cls-1" d="M16.2,6.87c-.23,.74-.62,1.91-1.48,2.05-1.68-.17-.75-1.93-.1-2.74,.57-.57,1.61-.1,1.58,.69Z"/>
    </g>
  </g>
</svg>