<svg width="40" height="40" viewBox="0 0 40 40" fill="none" xmlns="http://www.w3.org/2000/svg">
<path d="M30.591 27.7926C29.6654 23.9726 27.3871 21.2881 23.8189 19.8141C23.7216 19.7737 23.625 19.7378 23.5267 19.7026C24.7977 18.7012 25.63 17.2267 25.8349 15.5845C26.0611 13.7736 25.5116 11.9732 24.3278 10.6442C23.2022 9.38166 21.6839 8.67962 20.0528 8.66691C18.4134 8.65477 16.8773 9.33833 15.7262 10.5928C14.5112 11.9165 13.9429 13.7326 14.1674 15.5753C14.3696 17.2388 15.2057 18.7209 16.4857 19.7124C12.8518 21.0674 10.4797 23.7409 9.43411 27.6631C9.26412 28.301 9.30967 28.9407 9.56578 29.5127C10.1063 30.7209 11.0408 31.3334 12.3441 31.3334H12.3452C15.5679 31.3323 18.7906 31.3323 22.0133 31.3323C23.8966 31.3323 25.7794 31.3323 27.6621 31.3323C27.8032 31.3323 27.9271 31.3288 28.0399 31.3213C28.8632 31.267 29.6249 30.8232 30.1299 30.1032C30.6121 29.4162 30.7799 28.5738 30.5904 27.792L30.591 27.7926ZM15.8562 14.7837C15.8568 13.6361 16.2907 12.5544 17.0773 11.7374C17.8629 10.9215 18.9012 10.4726 20.0023 10.4726H20.0073C22.2933 10.4755 24.1522 12.4129 24.15 14.7917C24.1489 15.9416 23.7166 17.0227 22.9322 17.8362C22.1483 18.6492 21.1084 19.0965 20.0028 19.0965H19.9995C17.7134 19.0947 15.8551 17.1596 15.8568 14.7837H15.8562ZM28.7016 29.0661C28.4866 29.3584 28.1338 29.5289 27.7338 29.5329C27.0899 29.5399 26.4344 29.5381 25.8005 29.5364C25.5194 29.5358 25.2388 29.5353 24.9577 29.5353H21.225H18.2462C16.2873 29.5353 14.3285 29.5353 12.3702 29.5364H12.3685C12.0518 29.5364 11.8091 29.474 11.6052 29.34C11.1635 29.0499 10.9852 28.5749 11.1269 28.0693C12.2141 24.1945 14.6396 21.844 18.3356 21.083C23.0289 20.1163 27.6599 23.1793 28.8782 28.0566C28.971 28.4276 28.9082 28.7858 28.7021 29.0661H28.7016Z" fill="white"/>
</svg>
