<svg width="40" height="40" viewBox="0 0 40 40" fill="none" xmlns="http://www.w3.org/2000/svg">
<g clip-path="url(#clip0_1060_14)">
<path d="M29.5888 33.2001H10.4092C9.95812 32.9942 9.82448 32.6409 9.82865 32.1615C9.84536 29.9706 9.8377 27.7791 9.83213 25.5875C9.83213 25.4677 9.8029 25.3265 9.73538 25.2314C8.921 24.0819 8.45326 22.8133 8.30221 21.4145C7.99317 18.5479 9.72146 15.8253 12.4778 14.877C13.2156 14.6228 13.9757 14.5216 14.8312 14.5319C12.3282 14.0663 11.2312 12.0256 11.4163 10.3044C11.6252 8.36425 13.2073 6.87589 15.1068 6.80289C17.0787 6.72781 18.7715 8.03159 19.1453 9.93664C19.3576 11.0186 19.1286 12.0221 18.4799 12.9189C17.8381 13.8053 16.9506 14.317 15.8759 14.534C16.336 14.534 16.7961 14.534 17.2555 14.534C17.6293 14.534 18.0024 14.5381 18.3762 14.5333C18.9915 14.525 19.5288 14.7344 20.0021 15.1187C20.4594 14.7433 20.9655 14.5415 21.5432 14.5353C21.9079 14.5312 22.2727 14.5347 22.6374 14.534C23.1344 14.534 23.6313 14.534 24.1283 14.534C21.7799 14.0835 20.6181 12.1117 20.7963 10.3189C20.9919 8.3553 22.6193 6.84421 24.5522 6.8022C26.5332 6.75881 28.242 8.15832 28.551 10.0234C28.8538 11.8506 27.7596 14.0546 25.2448 14.5271C25.3395 14.536 25.4334 14.5353 25.5281 14.536C28.3005 14.5663 30.7373 16.3763 31.4731 19.019C32.0891 21.2313 31.5768 23.2623 30.3232 25.1474C30.2306 25.2858 30.1701 25.4739 30.1694 25.6399C30.1596 27.8142 30.1533 29.9879 30.1701 32.1622C30.1735 32.6416 30.0399 32.9949 29.5895 33.2008L29.5888 33.2001ZM18.8996 16.1945C18.7284 16.1566 18.5564 16.0878 18.3852 16.0864C17.0474 16.0781 15.7096 16.0664 14.3725 16.0864C11.9774 16.1236 9.91566 18.1216 9.84466 20.4888C9.78411 22.5137 10.5581 24.1914 12.1228 25.4952C13.5163 26.6571 15.1646 27.0118 16.9423 26.9023C17.2416 26.8837 17.4622 26.715 17.5861 26.4429C17.8221 25.9229 17.4344 25.3823 16.8295 25.3595C16.2588 25.3382 15.6769 25.3533 15.1193 25.2493C12.9936 24.854 11.3725 22.8698 11.4003 20.7546C11.4059 20.329 11.6906 19.9998 12.095 19.9523C12.4827 19.9068 12.853 20.1678 12.9421 20.5597C12.9644 20.6589 12.9609 20.7643 12.9651 20.8669C13.0242 22.4565 14.417 23.8009 16.0145 23.8175C16.1634 23.8188 16.2379 23.7803 16.3047 23.6384C16.6604 22.8842 17.2569 22.4104 18.0929 22.3057C18.5537 22.2478 19.027 22.2954 19.4954 22.2954C17.9947 21.8807 17.0307 20.975 16.8964 19.4254C16.7662 17.9281 17.5305 16.8929 18.9003 16.1938L18.8996 16.1945ZM20.504 22.2692C20.8583 22.2692 21.2133 22.2602 21.5676 22.2712C22.5413 22.3009 23.2513 22.7527 23.6822 23.6136C23.7601 23.7706 23.8353 23.8216 24.0079 23.8181C25.645 23.783 26.9814 22.44 27.035 20.7664C27.0504 20.2835 27.3768 19.9454 27.823 19.9495C28.2691 19.953 28.5963 20.3035 28.5977 20.7788C28.6039 23.024 26.7963 25.0579 24.5487 25.31C24.0761 25.363 23.5958 25.3458 23.1191 25.3637C22.6889 25.3802 22.3555 25.7067 22.345 26.1165C22.3346 26.5152 22.6457 26.903 23.0536 26.8975C23.7629 26.8879 24.4896 26.9064 25.1773 26.7653C27.967 26.1929 29.923 23.9463 30.1506 21.1362C30.3636 18.5121 28.3471 16.1862 25.732 16.0953C24.3441 16.0471 22.9527 16.0802 21.5634 16.0884C21.4061 16.0891 21.2495 16.1697 21.0309 16.2303C22.4669 16.8922 23.2311 17.9274 23.1023 19.424C22.9687 20.9744 22.0068 21.8814 20.504 22.2692ZM17.9119 23.9662C17.9168 23.9952 17.9209 24.0248 17.9258 24.0537C17.9544 24.073 17.9822 24.093 18.0114 24.1109C18.8376 24.6006 19.2622 25.3244 19.2059 26.2728C19.1509 27.1985 18.6615 27.8665 17.8061 28.2543C17.662 28.3197 17.6516 28.4072 17.6516 28.5332C17.6544 29.5044 17.653 30.4755 17.6537 31.4466C17.6537 31.512 17.6655 31.5768 17.6718 31.6401H22.3437C22.3437 31.5527 22.3437 31.4776 22.3437 31.4025C22.3437 30.4569 22.3381 29.5119 22.3485 28.5663C22.3506 28.3852 22.2887 28.306 22.1265 28.2268C21.3142 27.83 20.8464 27.1751 20.7908 26.2804C20.7344 25.3754 21.1228 24.6674 21.8898 24.1673C21.9525 24.1267 22.0151 24.0861 22.0778 24.0454C22.0812 24.0206 22.0854 23.9958 22.0889 23.971C21.9058 23.9194 21.7235 23.825 21.539 23.8223C20.5144 23.8078 19.4891 23.8078 18.4639 23.8223C18.2787 23.825 18.095 23.916 17.9112 23.9662H17.9119ZM11.4129 26.9175V31.6388H16.0729V28.4616C14.362 28.4341 12.8224 27.9354 11.4129 26.9182V26.9175ZM28.5886 26.9195C27.1861 27.9278 25.6367 28.4382 23.9223 28.4609V31.6374H28.5886V26.9188V26.9195ZM15.3198 8.34772C14.0342 8.3429 12.9741 9.37532 12.9637 10.6426C12.9532 11.9264 14.0036 12.9816 15.2968 12.9871C16.5824 12.9919 17.6425 11.9595 17.653 10.6915C17.6634 9.407 16.6145 8.35255 15.3205 8.34772H15.3198ZM24.69 8.34772C23.4058 8.34772 22.3506 9.38496 22.345 10.6536C22.3395 11.936 23.3947 12.9864 24.6893 12.9864C25.9743 12.9864 27.0288 11.9491 27.0343 10.6798C27.0399 9.39667 25.9854 8.34704 24.69 8.34704V8.34772ZM20.007 17.6292C19.1481 17.6257 18.4423 18.3131 18.436 19.1602C18.4298 20.0094 19.123 20.7119 19.9771 20.7216C20.8458 20.7312 21.5606 20.0342 21.5613 19.1767C21.562 18.3282 20.8632 17.6326 20.007 17.6292Z" fill="white"/>
</g>
<defs>
<clipPath id="clip0_1060_14">
<rect width="23.4667" height="26.4" fill="white" transform="translate(8.2666 6.80005)"/>
</clipPath>
</defs>
</svg>
