<svg width="69" height="67" viewBox="0 0 69 67" fill="none" xmlns="http://www.w3.org/2000/svg">
<g clip-path="url(#clip0_538_61)">
<path d="M68.9586 38.2508C68.954 35.3514 68.0074 34.4465 65.0755 34.4327C62.1253 34.4188 59.175 34.4327 56.0823 34.4327C56.0823 27.7243 56.1099 21.3531 56.0731 14.9818C56.0501 10.8682 53.5778 8.19498 49.5063 7.85333C48.1369 7.73791 46.7399 7.69174 45.3796 7.82563C43.8769 7.97337 43.2841 7.37318 42.8338 5.96965C41.4092 1.54207 37.1309 -0.835612 32.6871 0.272436C28.8683 1.22351 26.8923 3.99825 26.0192 7.7887C24.1397 7.7887 22.3888 7.761 20.638 7.79331C15.4635 7.89027 12.9269 10.4757 12.9131 15.6651C12.8993 21.8055 12.9131 27.9506 12.9131 34.428C9.71468 34.428 6.81957 34.4142 3.92447 34.428C0.992597 34.4419 0.0413487 35.3514 0.0367533 38.2462C0.0229671 47.0136 0.078112 55.7811 -9.90089e-06 64.5439C-0.0183915 66.5245 0.73985 67 2.58261 66.9954C23.8593 66.9446 45.1361 66.9446 66.4128 66.9954C68.2509 66.9954 69.0184 66.5337 69 64.5485C68.9219 55.7857 68.977 47.0182 68.9632 38.2508H68.9586ZM8.70828 64.7239H6.3922V52.3046H8.70828V64.7239ZM12.8579 63.5005C12.8579 64.0175 12.2238 64.53 11.8837 65.0471C11.6034 64.9409 11.3231 64.8393 11.0382 64.7332C11.0382 60.9242 11.0382 57.1107 11.0382 53.3018C11.0382 51.1103 9.9613 50.0146 7.80758 50.0146C7.19639 50.0146 6.58061 50.0561 5.97402 50.01C4.59539 49.9084 4.06692 50.5086 4.08531 51.8983C4.13585 55.661 4.0853 59.4238 4.09909 63.1865C4.10369 64.3638 3.91987 65.1995 2.33905 64.5854V36.6672C5.56503 36.6672 8.74045 36.621 11.9113 36.7318C12.2605 36.7457 12.8579 37.6598 12.8625 38.1631C12.9223 46.6119 12.9223 55.0562 12.8625 63.5051L12.8579 63.5005ZM34.9802 2.1515C38.5095 2.29462 41.3127 5.33714 41.1564 8.8552C40.9956 12.5348 37.9764 15.2542 34.2771 15.051C30.8765 14.8664 28.2158 11.8792 28.3353 8.38427C28.4593 4.85237 31.4877 2.00838 34.9802 2.1515ZM39.4332 64.7008H29.6036V48.7311H39.4332V64.7008ZM53.8857 52.3738C53.8857 56.432 53.8857 60.4949 53.8857 64.687H41.7676C41.7676 60.204 41.7676 55.7764 41.7676 51.3442C41.7676 45.3654 42.1031 46.4734 36.9287 46.3811C34.4793 46.3349 32.0254 46.4642 29.5806 46.3442C27.7241 46.2518 27.1956 47.0321 27.2232 48.7865C27.2967 54.0128 27.2507 59.2391 27.2507 64.6454H15.2475C15.2108 63.9344 15.1327 63.1311 15.1327 62.3278C15.1189 46.7874 15.1143 31.2516 15.1143 15.7112C15.1143 11.6068 16.7273 9.99556 20.8034 9.98171C22.5588 9.97709 24.3097 9.98171 26.1065 9.98171C27.43 14.4324 30.155 17.2625 34.8424 17.2256C39.424 17.1933 42.0617 14.3677 43.4082 9.98171C45.0855 9.98171 46.7536 9.97248 48.4264 9.98171C52.213 10.0048 53.9041 11.6669 53.9087 15.4573C53.9179 27.7659 53.9087 40.0745 53.8995 52.3784L53.8857 52.3738ZM62.5986 64.7285H60.2917V52.3046C60.9626 52.2491 61.6703 52.1891 62.5986 52.1153V64.7285ZM66.6517 64.5947C65.0296 65.2041 64.8917 64.313 64.8963 63.1634C64.9147 59.553 64.8136 55.9426 64.9331 52.3369C64.9974 50.4763 64.3173 49.9407 62.5388 49.9823C57.222 50.1069 58.0124 49.4836 57.9572 54.4745C57.9205 57.8402 57.9526 61.2059 57.9526 64.567C57.7321 64.7008 57.5069 64.8393 57.2863 64.9732C56.8911 64.4746 56.1512 63.976 56.1466 63.4774C56.0731 55.0331 56.0731 46.5842 56.1466 38.1354C56.1466 37.6368 56.9049 36.7318 57.3415 36.7134C60.3744 36.5887 63.4166 36.6487 66.6517 36.6487V64.5947Z" fill="#BABECA"/>
<path d="M32.5401 39.7605C32.5523 35.8239 30.5824 33.8555 26.6304 33.8555C25.1828 33.8555 23.7307 33.9063 22.2877 33.8417C21.0194 33.7863 20.4725 34.3449 20.4771 35.5869C20.4863 37.6552 20.4909 39.719 20.4633 41.7873C20.445 43.117 20.9596 43.731 22.3658 43.6941C25.1093 43.6248 27.8527 43.6341 30.5962 43.6941C31.9473 43.7218 32.5952 43.2001 32.5447 41.8243C32.5217 41.1363 32.5401 40.4484 32.5447 39.7559L32.5401 39.7605ZM30.2102 41.4272H22.7886V36.0947H30.2102V41.4272Z" fill="#BABECA"/>
<path d="M42.5213 33.8509C41.2254 33.8509 39.9249 33.9109 38.6382 33.8324C37.1033 33.7401 36.3726 34.2987 36.437 35.9239C36.5151 37.9091 36.4691 39.9036 36.4553 41.8935C36.4462 43.1216 36.9654 43.7033 38.243 43.6848C41.0599 43.6387 43.8815 43.634 46.7031 43.6848C47.9668 43.7079 48.5459 43.1954 48.5229 41.9443C48.5137 41.2564 48.5275 40.5684 48.5321 39.8759C48.5321 35.8562 46.5285 33.8463 42.5213 33.8463V33.8509ZM46.2711 41.3579H38.7944V36.1501H46.2711V41.3579Z" fill="#BABECA"/>
<path d="M30.4951 19.9449C28.5145 19.9956 26.5339 19.9541 24.5487 19.9679C20.1692 19.9956 20.4679 19.497 20.4633 24.0308C20.4572 27.8751 22.3903 29.7973 26.2627 29.7973C27.7103 29.7973 29.1624 29.7419 30.6054 29.8111C31.9794 29.8757 32.563 29.2848 32.5401 27.9274C32.5079 25.9376 32.4757 23.9431 32.5493 21.9532C32.6044 20.4342 31.9105 19.9079 30.4905 19.9449H30.4951ZM30.2286 27.475H22.7473V22.221H30.2286V27.475Z" fill="#BABECA"/>
<path d="M46.4963 19.9541C44.364 20.0187 42.2272 19.968 40.0949 19.968C37.6747 19.968 36.4615 21.1699 36.4553 23.5737C36.4431 27.7258 38.4666 29.8004 42.5259 29.7973C43.8999 29.7973 45.2739 29.728 46.6434 29.8157C48.0633 29.9081 48.5504 29.2617 48.5275 27.9228C48.4907 25.933 48.4769 23.9385 48.5504 21.9486C48.6056 20.4435 47.9485 19.9079 46.5009 19.9495L46.4963 19.9541ZM46.239 27.4104H38.845V22.2164H46.239V27.4104Z" fill="#BABECA"/>
<path d="M33.5648 9.79237V12.7933C33.5648 13.0103 33.7395 13.1904 33.96 13.1904H35.5363C35.7523 13.1904 35.9315 13.0149 35.9315 12.7933V9.79237H38.9185C39.1345 9.79237 39.3137 9.61693 39.3137 9.39532V7.81173C39.3137 7.59474 39.1391 7.41468 38.9185 7.41468H35.9315V4.41371C35.9315 4.19672 35.7568 4.01666 35.5363 4.01666H33.96C33.7441 4.01666 33.5648 4.1921 33.5648 4.41371V7.41468H30.5778C30.3618 7.41468 30.1826 7.59012 30.1826 7.81173V9.39532C30.1826 9.61231 30.3572 9.79237 30.5778 9.79237H33.5648Z" fill="#BABECA"/>
</g>
<defs>
<clipPath id="clip0_538_61">
<rect width="69" height="67" fill="white"/>
</clipPath>
</defs>
</svg>
