<svg width="40" height="40" viewBox="0 0 40 40" fill="none" xmlns="http://www.w3.org/2000/svg">
<g clip-path="url(#clip0_1061_22)">
<path d="M8.01815 31.8761C8.01815 30.6574 8.01815 29.4725 8.01815 28.2876C8.01815 25.7961 8.01494 23.3045 8.01944 20.8136C8.02201 19.5503 8.75173 18.6127 9.92313 18.3628C10.1295 18.3188 10.3475 18.3144 10.5603 18.3144C12.3784 18.3125 14.196 18.3156 16.0142 18.3169C16.0759 18.3169 16.1376 18.3093 16.2315 18.3035C16.2315 18.1525 16.2315 18.0173 16.2315 17.8829C16.2315 14.7979 16.2328 11.7123 16.2315 8.6273C16.2315 7.57816 16.6545 6.76995 17.6298 6.32377C17.9481 6.17845 18.33 6.10961 18.6829 6.10834C22.2974 6.09304 25.9119 6.09431 29.5264 6.10196C30.8849 6.10451 31.848 7.00642 31.9605 8.34813C31.9728 8.496 31.9708 8.64451 31.9708 8.79302C31.9708 16.2671 31.9708 23.7417 31.9708 31.2158C31.9708 31.4248 31.9708 31.6346 31.9708 31.8768C32.5372 31.8768 33.1017 31.8672 33.6662 31.8793C34.4371 31.8952 34.9238 32.6372 34.6087 33.3083C34.4416 33.664 34.1484 33.8552 33.7575 33.8986C33.6726 33.9081 33.5865 33.903 33.501 33.903C24.4969 33.903 15.4928 33.903 6.48865 33.903C5.78658 33.903 5.33203 33.5461 5.29667 32.9712C5.25938 32.3586 5.69207 31.8901 6.32406 31.8793C6.8879 31.8691 7.45238 31.8774 8.0188 31.8774L8.01815 31.8761ZM18.2708 20.0022C18.2772 20.0022 18.2843 20.0022 18.2907 20.0022C18.2907 22.7474 18.2907 25.4933 18.2907 28.2385C18.2907 29.2666 18.2901 30.2954 18.2907 31.3235C18.2907 31.82 18.3473 31.8761 18.8404 31.8761C22.3373 31.8761 25.8335 31.8761 29.3303 31.8761C29.8608 31.8761 29.9315 31.8047 29.9315 31.2649C29.9315 23.7596 29.9315 16.2543 29.9315 8.74841C29.9315 8.17603 29.8736 8.12058 29.2834 8.12058C25.8187 8.12058 22.3547 8.12058 18.89 8.12058C18.3319 8.12058 18.2708 8.1824 18.2708 8.74458C18.2708 12.4975 18.2708 16.2499 18.2708 20.0028V20.0022ZM16.218 26.123C16.218 24.3645 16.218 22.6053 16.218 20.8467C16.218 20.391 16.162 20.3349 15.6991 20.3349C13.9999 20.3336 12.3007 20.3336 10.6014 20.3349C10.1475 20.3349 10.0581 20.4235 10.0581 20.8735C10.0575 24.3594 10.0575 27.8453 10.0581 31.3305C10.0581 31.7805 10.1527 31.8755 10.5963 31.8761C12.2955 31.8768 13.9948 31.8761 15.694 31.8761C16.1518 31.8761 16.218 31.8111 16.2186 31.3675C16.2186 29.6191 16.2186 27.8714 16.2186 26.123H16.218Z" fill="white"/>
<path d="M24.085 14.8994C23.6369 14.8994 23.1887 14.9064 22.7406 14.8974C22.1543 14.8853 21.7364 14.4844 21.721 13.935C21.7049 13.3722 22.0778 12.9183 22.6616 12.8999C23.6311 12.8693 24.6025 12.8718 25.5721 12.905C26.1295 12.9241 26.4966 13.3849 26.4811 13.9356C26.4657 14.4736 26.0562 14.8732 25.493 14.8987C25.4718 14.9 25.4505 14.9 25.4287 14.9C24.9806 14.9 24.5325 14.9 24.0843 14.9L24.085 14.8994Z" fill="white"/>
<path d="M24.1009 21.0064C23.6528 21.0064 23.2047 21.0128 22.7566 21.0051C22.1638 20.9949 21.7433 20.6042 21.7215 20.0573C21.6983 19.4805 22.0783 19.0222 22.6781 19.0044C23.6367 18.9757 24.5979 18.9776 25.5571 19.0095C26.1313 19.0286 26.5035 19.4932 26.4804 20.0586C26.4585 20.5934 26.0451 20.9905 25.4761 21.0039C25.0177 21.0147 24.5587 21.0058 24.1003 21.0064H24.1009Z" fill="white"/>
<path d="M24.0896 27.113C23.6415 27.113 23.1934 27.12 22.7453 27.1111C22.157 27.0996 21.7384 26.7019 21.7211 26.1531C21.7031 25.5897 22.0747 25.1326 22.6572 25.1142C23.6267 25.0829 24.5982 25.0855 25.5677 25.1173C26.1264 25.1358 26.4948 25.5935 26.4813 26.1442C26.4678 26.6828 26.0595 27.0939 25.4976 27.1092C25.0289 27.1219 24.5589 27.1117 24.0896 27.1117V27.113Z" fill="white"/>
<path d="M13.1259 27.1128C12.6778 27.1128 12.2297 27.1204 11.7816 27.1109C11.2068 27.0981 10.7793 26.6851 10.7606 26.1408C10.7426 25.6111 11.1303 25.1356 11.6858 25.1171C12.6656 25.0853 13.6486 25.0865 14.6284 25.1197C15.1762 25.1382 15.569 25.6328 15.5375 26.1567C15.5054 26.6953 15.0913 27.0892 14.5339 27.1122C14.5127 27.1128 14.4915 27.1128 14.4696 27.1128C14.0215 27.1128 13.5734 27.1128 13.1253 27.1128H13.1259Z" fill="white"/>
</g>
<defs>
<clipPath id="clip0_1061_22">
<rect width="29.4117" height="27.8074" fill="white" transform="translate(5.29419 6.09619)"/>
</clipPath>
</defs>
</svg>
