<svg width="73" height="75" viewBox="0 0 73 75" fill="none" xmlns="http://www.w3.org/2000/svg">
<g clip-path="url(#clip0_538_78)">
<mask id="mask0_538_78" style="mask-type:luminance" maskUnits="userSpaceOnUse" x="4" y="4" width="65" height="65">
<path d="M36.3448 68.2607C53.9715 68.2607 68.2607 53.9715 68.2607 36.3448C68.2607 18.7182 53.9715 4.42899 36.3448 4.42899C18.7182 4.42899 4.42896 18.7182 4.42896 36.3448C4.42896 53.9715 18.7182 68.2607 36.3448 68.2607Z" fill="white"/>
</mask>
<g mask="url(#mask0_538_78)">
<path d="M15.8474 51.8056C15.1846 51.8056 14.6159 51.8771 14.07 51.7926C12.7767 51.5911 11.7369 50.4798 11.5387 49.1866C11.5095 49.0013 11.4835 48.8129 11.4835 48.6244C11.4932 43.6398 11.4185 38.6519 11.555 33.6738C11.6362 30.7558 12.7735 28.1888 15.0936 26.2716C15.9384 25.5762 16.9165 25.261 18.0278 25.2675C21.9564 25.2903 25.8849 25.3455 29.8102 25.2513C32.3448 25.1895 34.067 26.3236 35.2888 28.4065C35.5357 28.8289 35.7567 28.9394 36.2733 28.8874C37.1019 28.7997 37.95 28.9361 38.7916 28.9361C39.0451 28.9361 39.3928 28.8646 39.5358 28.6924C41.7584 26.0246 44.6114 24.7021 48.0655 24.7769C49.8169 24.8159 51.6464 24.7639 53.3003 25.2415C57.5083 26.4568 59.8804 29.456 60.6603 33.742C61.2842 37.1604 61.9113 40.5788 62.5514 43.994C63.0616 46.717 62.233 48.8941 59.9617 50.5156C59.7862 50.639 59.64 50.964 59.6627 51.1752C59.7959 52.5075 59.9844 53.8332 60.1469 55.1622C60.2574 56.0786 59.9064 56.4783 58.9771 56.488C58.0185 56.501 57.0567 56.488 56.0331 56.488C55.8869 58.0347 55.7374 59.5262 55.6009 61.0145C55.263 64.6896 54.951 68.3647 54.5904 72.0365C54.3434 74.5483 51.5359 75.8188 49.4433 74.3988C49.3068 74.3079 49.1768 74.2071 49.0468 74.1129C47.2142 75.5394 44.9655 75.2729 43.6593 73.0568C42.2003 75.3639 39.409 75.6076 37.5049 73.7945C36.7023 74.5516 35.7599 75.0162 34.6194 74.9935C33.4691 74.9707 32.5495 74.4606 31.7436 73.5962C30.6031 74.5841 29.3066 75.1007 27.7956 74.9707C26.3073 74.844 25.1311 74.1454 24.1822 72.9724C22.9994 74.3859 21.5372 75.1105 19.7078 74.9707C17.092 74.7725 15.0383 72.6312 15.0871 70.0056C15.1423 67.0909 15.3145 64.1794 15.438 61.2679C15.5745 58.1257 15.7142 54.9803 15.8539 51.8023L15.8474 51.8056ZM33.8135 29.7907C32.9134 28.1888 31.8249 27.1782 29.8817 27.2237C26.1189 27.3114 22.3528 27.3114 18.5932 27.2204C17.001 27.1814 15.9547 27.8606 15.1196 29.0726C13.9173 30.8175 13.4461 32.7705 13.4526 34.8696C13.4624 39.292 13.4526 43.7113 13.4591 48.1337C13.4591 48.4132 13.4591 48.7056 13.5274 48.9721C13.6931 49.5992 14.1512 49.9209 14.7816 49.8917C15.4088 49.8624 15.8409 49.5147 15.9514 48.8681C15.9937 48.6147 15.9807 48.3514 15.9807 48.0947C15.9872 43.4611 15.9904 38.8306 16.0034 34.1969C16.0034 33.4106 16.3674 32.9979 16.9847 32.9947C17.6054 32.9947 17.9661 33.4073 17.9693 34.1872C18.0278 43.2401 17.9498 52.293 17.4202 61.3362C17.2544 64.1989 17.1342 67.0681 17.0595 69.9341C17.0075 71.8838 18.6809 73.2713 20.6111 72.9821C22.1676 72.7481 23.1717 71.4841 23.1717 69.6969C23.1781 63.393 23.1717 57.0924 23.1749 50.7885C23.1749 50.5318 23.1684 50.2686 23.2074 50.0152C23.2919 49.4757 23.6428 49.1573 24.1725 49.1671C24.7314 49.1768 25.0888 49.505 25.1343 50.0899C25.1538 50.3238 25.1473 50.5611 25.1473 50.795C25.1473 56.9787 25.1473 63.1656 25.1473 69.3492C25.1473 69.6547 25.1441 69.9634 25.1798 70.2656C25.404 72.0983 26.967 73.2648 28.7932 72.9659C30.1287 72.7481 30.8825 71.8675 30.8793 70.5288C30.8793 69.4695 30.8793 68.4134 30.8793 67.3541C30.8793 65.242 30.8793 63.1298 30.8793 61.008C29.2318 60.4686 28.6697 59.3053 28.7152 57.6773C28.7737 55.5392 28.7379 53.3978 28.7282 51.2564C28.7217 49.6155 29.1636 48.111 29.9889 46.6975C30.2002 46.3368 30.3334 45.8721 30.3334 45.4562C30.3594 41.8818 30.3529 38.3075 30.3464 34.7331C30.3464 33.989 30.2781 33.2384 31.214 32.9557C31.2822 32.9362 31.3342 32.8159 31.37 32.7315C31.8801 31.5324 32.6925 30.5803 33.8135 29.794V29.7907ZM59.2013 48.5692C59.4255 48.3644 59.588 48.2442 59.7212 48.0947C60.6668 47.0224 60.8812 45.7649 60.6278 44.4034C59.9811 40.894 59.3215 37.3846 58.6781 33.8753C58.0022 30.2067 55.5099 27.5031 51.9291 26.915C50.2784 26.6453 48.5529 26.7363 46.8697 26.8045C44.9948 26.8792 43.3831 27.6948 41.9988 28.9459C41.6609 29.2513 41.3749 29.612 41.0597 29.9499C44.1467 32.3935 44.4067 36.2018 42.6032 38.8274C41.6706 40.1856 40.3936 41.0727 38.8014 41.4432C36.3091 42.0216 34.2002 41.2222 32.3285 39.3538V44.1434C32.6015 44.0037 32.7672 43.929 32.9232 43.8347C36.0004 42.0281 39.6982 42.223 42.5187 44.4066C44.6471 46.0541 45.7877 48.2475 45.8656 50.951C45.8981 52.1175 45.8721 53.2873 45.8721 54.4669H58.077C57.8755 52.9754 57.7488 51.5229 57.4693 50.0996C56.4133 44.6861 55.3085 39.2791 54.2199 33.8688C54.0477 33.0044 54.2882 32.4683 54.9055 32.335C55.5522 32.1953 55.9811 32.5982 56.1631 33.5081C56.735 36.3643 57.3069 39.2173 57.882 42.0703C58.3109 44.2019 58.7496 46.3336 59.2045 48.5724L59.2013 48.5692ZM32.8582 65.6709H32.8647C32.8647 67.5036 32.8484 69.3395 32.8712 71.1722C32.8809 72.0268 33.4626 72.7416 34.2294 72.9496C34.9768 73.1478 35.8314 72.8749 36.1921 72.1957C36.4033 71.8026 36.5105 71.3086 36.5138 70.857C36.5398 67.614 36.5268 64.3679 36.53 61.1217C36.53 60.3483 36.8875 59.9259 37.5114 59.9291C38.1353 59.9291 38.4959 60.3516 38.4992 61.1249C38.5089 62.3467 38.4992 63.5718 38.4992 64.7935C38.4992 66.9317 38.4862 69.073 38.5089 71.2112C38.5187 72.1697 39.1946 72.8879 40.0914 72.9886C41.0077 73.0893 41.8104 72.5629 42.0638 71.6498C42.1483 71.3379 42.1613 70.9999 42.1645 70.675C42.171 67.2176 42.1743 63.7635 42.1645 60.3061C42.1645 59.6237 42.392 59.159 43.1166 59.0648C43.6918 58.9868 43.9062 58.6586 43.903 58.0965C43.89 55.7211 43.9322 53.3458 43.8802 50.9737C43.8023 47.4286 40.8973 44.6049 37.3846 44.5919C33.7583 44.5756 30.8143 47.3571 30.7233 50.9607C30.6648 53.3328 30.7136 55.7114 30.7006 58.0835C30.6973 58.7236 30.967 59.0226 31.6202 59.0583C32.5917 59.1135 32.8517 59.4157 32.8549 60.3808C32.8582 62.1453 32.8549 63.9065 32.8549 65.6709H32.8582ZM32.8582 35.2205C32.8647 37.6576 34.8728 39.6527 37.3132 39.6462C39.747 39.6397 41.7486 37.6316 41.7519 35.1978C41.7519 32.7445 39.773 30.7591 37.3262 30.7526C34.8273 30.7493 32.8517 32.725 32.8582 35.2205ZM50.0801 56.5205C50.0509 56.6602 50.0119 56.7707 50.0119 56.8844C50.0119 61.7943 50.0022 66.701 50.0184 71.6108C50.0184 72.4654 50.5416 72.9918 51.2857 73.0113C52.0331 73.0308 52.553 72.5304 52.6342 71.6856C53.0046 67.7343 53.3718 63.7862 53.739 59.8349C53.8397 58.7431 53.9275 57.6513 54.0249 56.5205H50.0866H50.0801ZM45.8656 56.5303C45.8656 57.1899 45.8754 57.7975 45.8656 58.4019C45.8494 59.2273 45.5212 59.9324 44.8551 60.4003C44.4554 60.683 44.4066 60.9917 44.4489 61.4109C44.5984 62.9056 44.7283 64.4036 44.8681 65.9016C45.05 67.8643 45.2288 69.8302 45.4237 71.7928C45.4985 72.5402 46.0346 73.0113 46.73 73.0081C47.4351 73.0081 47.9323 72.5337 48.0135 71.7766C48.0298 71.6141 48.0298 71.4484 48.0298 71.2826C48.0298 66.6067 48.0298 61.9308 48.0298 57.2549V56.527H45.8656V56.5303Z" fill="#879F89"/>
<path d="M49.0566 10.8206C52.6894 10.8726 55.4937 13.7581 55.4449 17.3942C55.3995 20.8548 52.41 23.7371 48.9526 23.6591C45.3197 23.5778 42.535 20.6761 42.6032 17.04C42.6682 13.5988 45.6024 10.7686 49.0566 10.8206ZM53.4693 17.2545C53.4823 14.8044 51.5229 12.8222 49.0598 12.793C46.6163 12.7637 44.5951 14.7394 44.5756 17.1797C44.5561 19.6655 46.561 21.7029 49.0176 21.6899C51.4644 21.6769 53.4563 19.6948 53.4693 17.2545Z" fill="#879F89"/>
<path d="M24.1887 10.8206C27.8118 10.8661 30.6583 13.7841 30.5933 17.3844C30.5316 20.8581 27.5616 23.7305 24.1042 23.6623C20.4714 23.5908 17.6899 20.6988 17.7483 17.053C17.8068 13.6053 20.7281 10.7751 24.1855 10.8206H24.1887ZM19.724 17.2349C19.724 19.6915 21.7061 21.6899 24.1432 21.6899C26.6095 21.6899 28.6307 19.6623 28.6177 17.1992C28.6047 14.7654 26.5933 12.7865 24.1465 12.793C21.6866 12.8027 19.724 14.7751 19.724 17.2349Z" fill="#879F89"/>
</g>
<path d="M36.3448 72.6864C16.3024 72.6864 0 56.384 0 36.3448C0 16.3056 16.3024 0 36.3448 0C56.3873 0 72.6897 16.3024 72.6897 36.3448C72.6897 56.3873 56.3873 72.6897 36.3448 72.6897V72.6864ZM36.3448 2.32984C17.5891 2.32984 2.32984 17.5891 2.32984 36.3448C2.32984 55.1005 17.5891 70.3598 36.3448 70.3598C55.1005 70.3598 70.3598 55.1005 70.3598 36.3448C70.3598 17.5891 55.0973 2.32984 36.3448 2.32984Z" fill="#879F89"/>
</g>
<defs>
<clipPath id="clip0_538_78">
<rect width="72.6864" height="75" fill="white"/>
</clipPath>
</defs>
</svg>
