<svg width="79" height="75" viewBox="0 0 79 75" fill="none" xmlns="http://www.w3.org/2000/svg">
<g clip-path="url(#clip0_538_88)">
<path d="M63.0701 27.081C66.2797 24.5865 69.4017 22.0987 72.5978 19.7081C73.7551 18.843 75.0604 18.149 76.3624 17.5053C76.8267 17.2773 77.5197 17.3074 78.0412 17.4516C78.8251 17.6729 79.2389 18.5614 78.8654 19.4533C78.3339 20.7206 77.7418 22.0149 76.9142 23.1012C74.0915 26.8061 71.1646 30.4339 68.2545 34.0717C67.3159 35.2419 66.2898 36.3416 65.3309 37.4983C65.1493 37.7196 65.0214 38.0482 65.0113 38.3332C64.8128 44.2677 63.0533 49.6994 59.504 54.4671C53.7343 62.2122 45.9628 66.3597 36.2703 66.6179C29.5989 66.7956 23.6307 64.586 18.4699 60.3916C15.9871 58.3732 14.2309 55.7982 13.8844 52.5191C13.4941 48.8645 14.7524 45.8469 17.6726 43.5469C18.8332 42.6316 20.0646 41.7766 21.1041 40.7372C23.1025 38.7422 22.9208 35.7481 20.7677 33.9175C19.4859 32.8278 18.0998 31.8588 16.855 30.7356C13.8541 28.0299 12.9693 23.4029 14.601 19.698C15.8087 16.9554 17.8071 14.9135 20.2361 13.2639C24.0916 10.6453 28.3642 9.08624 32.9935 8.53638C36.8187 8.08374 40.5833 8.53973 44.2436 9.68305C50.4608 11.621 55.5207 15.2119 59.3863 20.4491C60.8161 22.387 61.9936 24.4658 62.8885 26.7021C62.9457 26.843 63.023 26.9737 63.0769 27.0743L63.0701 27.081ZM62.2291 40.9786C62.0339 41.1831 61.8354 41.3876 61.6437 41.5955C59.6184 43.7548 57.6368 45.9542 55.5577 48.0598C54.2692 49.3641 53.0345 50.6516 52.7317 52.5493C52.7283 52.5694 52.7149 52.5895 52.7082 52.613C51.1337 56.6498 48.264 59.1477 43.9274 59.8485C40.5799 60.3916 37.3502 59.835 34.1945 58.7185C33.3837 58.4302 33.0911 58.0279 33.1382 57.364C33.1819 56.737 33.5688 56.3682 34.4469 56.2609C35.695 56.1067 36.4587 55.4059 36.7985 54.2592C37.1215 53.1696 37.367 52.0531 37.6261 50.9433C38.013 49.2803 38.4638 47.6407 39.5135 46.2459C40.9904 44.2845 43.0695 43.3893 45.4211 42.9568C45.8114 42.8864 46.2286 42.6818 46.5179 42.417C51.2716 38.0448 55.9984 33.6459 60.7522 29.2738C61.0751 28.9754 61.1155 28.7541 60.9641 28.3685C58.5889 22.2596 54.6258 17.4818 48.8527 14.2999C41.5488 10.2765 33.9792 9.58917 26.1775 12.8113C22.9377 14.1491 20.0107 15.9227 17.8711 18.7894C15.4219 22.0685 15.5463 27.014 19.3614 29.7499C20.1823 30.3366 20.9527 30.9938 21.7602 31.5973C25.9891 34.7624 25.73 40.2309 22.2177 43.044C20.9763 44.0397 19.6709 44.9685 18.5035 46.0448C16.3369 48.0464 15.8222 50.5812 16.5085 53.3573C17.0905 55.7211 18.6011 57.5249 20.5053 58.9331C28.4618 64.8073 37.0945 65.8668 46.2084 62.0815C52.984 59.2651 57.7512 54.3062 60.6176 47.577C61.5057 45.4949 62.0844 43.3122 62.2291 40.9819V40.9786ZM75.6694 20.6536C71.7937 22.6184 50.6223 40.8713 48.4624 43.9861C49.7779 45.2937 51.0866 46.5946 52.4256 47.9291C60.6445 39.2619 68.7726 30.4842 75.6694 20.6536ZM37.8179 57.2332C38.1879 57.307 38.4268 57.3606 38.6657 57.4009C40.6809 57.7127 42.6994 57.8032 44.6776 57.2399C48.2034 56.2374 50.0066 53.6557 50.9083 50.3029C50.9453 50.1621 50.8309 49.9274 50.7131 49.8067C49.317 48.385 47.9073 46.9735 46.491 45.5687C46.3631 45.4412 46.1411 45.2937 45.9931 45.3205C43.9913 45.6692 42.0972 46.2862 41.1384 48.261C40.6001 49.3741 40.2401 50.5879 39.9273 51.7882C39.4428 53.6624 39.2241 55.6205 37.8145 57.2332H37.8179Z" fill="#CBB2B2"/>
<path d="M31.2878 25.3979C31.3113 28.2545 28.9597 30.5412 25.9689 30.568C23.1933 30.5948 20.7879 28.2746 20.7643 25.5521C20.7374 22.5077 23.0419 20.1507 26.0563 20.1306C28.9395 20.1138 31.2642 22.4541 31.2878 25.3979ZM28.879 25.3409C28.8823 23.8019 27.6241 22.5614 26.0429 22.5446C24.4684 22.5278 23.1832 23.7684 23.1765 25.3007C23.1732 26.9033 24.4112 28.1573 26.0092 28.1673C27.6106 28.1774 28.8722 26.9335 28.8756 25.3409H28.879Z" fill="#CBB2B2"/>
<path d="M57.2129 29.7231C57.1557 32.6602 54.794 34.9803 51.9142 34.92C49.0041 34.8596 46.6155 32.4757 46.6895 29.6962C46.7702 26.7323 49.0848 24.4356 51.9647 24.4591C54.8882 24.4825 57.2668 26.8698 57.2096 29.7231H57.2129ZM52.0252 32.5093C53.5661 32.4959 54.8344 31.195 54.8108 29.656C54.7873 28.1304 53.4752 26.8731 51.9243 26.8832C50.3834 26.8932 49.0848 28.1908 49.0916 29.7096C49.0949 31.2352 50.444 32.5227 52.0252 32.5093Z" fill="#CBB2B2"/>
<path d="M32.7815 51.2517C32.7748 54.1553 30.4434 56.5157 27.6073 56.4956C24.5424 56.4755 22.2682 54.1888 22.2648 51.1344C22.2614 48.4085 24.7039 46.028 27.4828 46.0448C30.4299 46.0649 32.7916 48.3851 32.7849 51.2517H32.7815ZM30.3694 51.2585C30.3694 49.7161 29.0775 48.4421 27.5333 48.4521C25.9251 48.4655 24.6736 49.7195 24.677 51.3155C24.677 52.8108 25.9554 54.0749 27.4828 54.095C29.0741 54.1151 30.3727 52.841 30.3694 51.2585Z" fill="#CBB2B2"/>
<path d="M34.7833 21.4147C34.7227 18.5212 37.0979 16.1473 40.0719 16.1306C42.8845 16.1138 45.2529 18.4373 45.3135 21.2705C45.374 24.1774 43.019 26.5613 40.0551 26.5948C37.219 26.625 34.8405 24.2881 34.7799 21.4147H34.7833ZM37.1988 21.4013C37.1988 22.9268 38.4975 24.1774 40.0719 24.1808C41.5791 24.1841 42.9013 22.9033 42.9147 21.4247C42.9282 19.8288 41.606 18.5212 39.9878 18.5413C38.4369 18.558 37.1921 19.8321 37.1955 21.4013H37.1988Z" fill="#CBB2B2"/>
<path d="M37.6295 75C16.8786 75 0 58.1787 0 37.5017C0 16.8246 16.8786 0 37.6295 0C58.3803 0 75.2589 16.8213 75.2589 37.5017C75.2589 58.1821 58.3803 75.0033 37.6295 75.0033V75ZM37.6295 2.404C18.2108 2.404 2.41219 18.149 2.41219 37.5017C2.41219 56.8544 18.2108 72.5993 37.6295 72.5993C57.0481 72.5993 72.8467 56.8544 72.8467 37.5017C72.8467 18.149 57.0447 2.404 37.6295 2.404Z" fill="#CBB2B2"/>
</g>
<defs>
<clipPath id="clip0_538_88">
<rect width="79" height="75" fill="white"/>
</clipPath>
</defs>
</svg>
