<svg width="44" height="44" viewBox="0 0 44 44" fill="none" xmlns="http://www.w3.org/2000/svg">
<path d="M30.6052 36.7954C28.2202 36.7954 26.9134 38.0195 26.685 40.4677C26.5078 42.358 25.4681 43.3437 23.5657 43.3746C22.268 43.3978 20.9664 43.3939 19.6686 43.3746C17.6276 43.3437 16.6418 42.3928 16.5224 40.3865C16.3145 36.7993 16.3106 36.8341 12.606 36.7838C11.0041 36.7606 9.29812 37.1743 7.9272 35.8368C7.05305 34.9863 6.54473 34.0354 6.57554 32.7868C6.61019 31.3836 6.58709 29.9804 6.57554 28.5734C6.56783 27.3751 6.07107 26.6715 4.75406 26.7682C4.20723 26.8107 3.65655 26.7798 3.10587 26.7682C1.10725 26.7256 0.0444041 25.6858 0.0174478 23.7182C-0.00180673 22.315 -0.00950854 20.908 0.0174478 19.5048C0.0559568 17.773 1.09955 16.7139 2.8055 16.6133C6.57168 16.3853 6.72187 16.3775 6.53703 12.6821C6.27902 7.56021 8.18521 6.24592 12.6369 6.58609C12.787 6.59768 12.9372 6.58609 13.0874 6.58609C15.964 6.56289 16.6688 7.10407 16.534 3.26557C16.4647 1.10473 17.6199 0.0378314 19.7533 0.014638C21.0511 -0.000824207 22.3527 -0.00855532 23.6504 0.014638C25.5605 0.0494281 26.6041 1.08926 26.685 2.98339C26.8351 6.58995 26.8428 6.73684 30.4357 6.55516C35.8 6.28457 37.0054 8.26374 36.6819 12.8367C36.6549 13.2348 36.7127 13.6407 36.6742 14.0389C36.3969 16.7989 37.9796 17.0463 39.8704 16.8414C41.9576 16.6133 43.1437 17.5372 43.2284 19.671C43.2785 20.9234 43.2554 22.1798 43.2361 23.4322C43.2053 25.6935 42.1887 26.7372 39.9629 26.8223C37.7756 26.9073 36.6806 28.0412 36.678 30.224C36.678 30.9275 36.6857 31.6272 36.678 32.3307C36.6472 35.2337 35.1146 36.78 32.2572 36.7993C31.7065 36.7993 31.1559 36.7993 30.609 36.7993L30.6052 36.7954ZM21.5902 36.7336C22.5414 36.7336 23.4926 36.7568 24.4399 36.7297C25.7338 36.6911 26.5078 36.1344 26.4346 34.7003C26.3884 33.7996 26.4 32.8951 26.4231 31.9905C26.5001 28.7435 28.3986 26.7836 31.6141 26.6406C32.5114 26.6019 33.4125 26.6522 34.3136 26.629C35.9002 26.5865 36.5856 25.9255 36.6164 24.3406C36.6511 22.5354 36.6434 20.7302 36.6164 18.9249C36.5933 17.4097 35.9425 16.8144 34.3752 16.7602C33.1776 16.7216 31.9722 16.7448 30.7862 16.6172C28.4718 16.3698 26.9545 14.9009 26.658 12.5622C26.5078 11.3755 26.5733 10.1617 26.5425 8.95954C26.4963 7.27802 25.9302 6.67499 24.3051 6.6518C22.5067 6.62861 20.7045 6.63247 18.9061 6.6518C17.412 6.66726 16.6842 7.32827 16.5994 8.81651C16.5378 9.9182 16.5994 11.0237 16.5802 12.1254C16.5301 14.4912 14.9243 16.3312 12.5714 16.6017C11.3353 16.7448 10.0799 16.7139 8.83216 16.7564C7.25715 16.8144 6.66025 17.3865 6.641 18.9481C6.6179 20.7534 6.62175 22.5586 6.641 24.3638C6.6564 26.0067 7.24944 26.5788 8.92459 26.6251C10.0722 26.6561 11.2313 26.5942 12.3673 26.7295C14.9859 27.0388 16.5571 28.8478 16.584 31.4687C16.5956 32.5201 16.5571 33.5754 16.5917 34.6269C16.6418 35.9953 17.335 36.7413 18.7482 36.7297C19.6994 36.722 20.6467 36.7297 21.5979 36.7297L21.5902 36.7336Z" fill="#31A8E6"/>
</svg>
