<svg width="1280" height="417" viewBox="0 0 1280 417" fill="none" xmlns="http://www.w3.org/2000/svg">
<path d="M-48 61.0877C-48 50.8673 -48 45.7572 -47.2555 41.4912C-43.6305 20.7212 -27.3664 4.45712 -6.59645 0.83218C-2.33047 0.0876465 2.77969 0.0876465 13 0.0876465H1267C1277.22 0.0876465 1282.33 0.0876465 1286.6 0.83218C1307.37 4.45712 1323.63 20.7212 1327.26 41.4912C1328 45.7572 1328 50.8673 1328 61.0876V306.637C1328 316.159 1328 320.92 1327.33 324.978C1324.06 344.677 1309.39 360.546 1290.01 365.343C1286.02 366.331 1281.27 366.704 1271.78 367.449L644.778 416.712C643.917 416.78 643.486 416.814 643.056 416.84C641.021 416.965 638.979 416.965 636.944 416.84C636.514 416.814 636.083 416.78 635.222 416.712L8.22192 367.449C-1.27073 366.704 -6.01706 366.331 -10.0099 365.343C-29.3933 360.546 -44.0645 344.677 -47.3278 324.978C-48 320.92 -48 316.159 -48 306.637V61.0877Z" fill="url(#paint0_linear_528_9)"/>
<defs>
<linearGradient id="paint0_linear_528_9" x1="-1533.11" y1="-26.9403" x2="1367.74" y2="274.921" gradientUnits="userSpaceOnUse">
<stop stop-color="#CDE7EF"/>
<stop offset="1" stop-color="#EEECF1"/>
</linearGradient>
</defs>
</svg>
