<svg xmlns="http://www.w3.org/2000/svg" fill="none" viewBox="0 0 36 36">
<path d="M25.3921 30.528C23.4134 30.528 22.3292 31.5435 22.1396 33.5747C21.9927 35.143 21.13 35.9608 19.5517 35.9865C18.475 36.0057 17.3951 36.0025 16.3184 35.9865C14.6251 35.9608 13.8072 35.1719 13.7081 33.5074C13.5356 30.5312 13.5324 30.56 10.4588 30.5183C9.12972 30.4991 7.71435 30.8423 6.57694 29.7326C5.85168 29.027 5.42995 28.2381 5.45551 27.2022C5.48426 26.038 5.46509 24.8738 5.45551 23.7064C5.44912 22.7122 5.03696 22.1285 3.94429 22.2087C3.4906 22.2439 3.03372 22.2183 2.57684 22.2087C0.918652 22.1734 0.0368406 21.3107 0.0144759 19.6782C-0.00149899 18.5141 -0.00788892 17.3467 0.0144759 16.1825C0.0464255 14.7457 0.912262 13.8669 2.32763 13.7835C5.45231 13.5943 5.57691 13.5879 5.42356 10.5219C5.20949 6.27246 6.791 5.18203 10.4844 5.46426C10.609 5.47388 10.7336 5.46426 10.8582 5.46426C13.2448 5.44502 13.8295 5.89402 13.7177 2.70934C13.6602 0.916554 14.6187 0.0313875 16.3887 0.0121447C17.4654 -0.000683818 18.5453 -0.00709807 19.622 0.0121447C21.2067 0.0410088 22.0725 0.903726 22.1396 2.47522C22.2642 5.46747 22.2706 5.58934 25.2515 5.4386C29.7021 5.2141 30.7021 6.85615 30.4338 10.6502C30.4114 10.9805 30.4593 11.3173 30.4274 11.6476C30.1973 13.9375 31.5105 14.1427 33.0792 13.9728C34.8109 13.7835 35.7949 14.5501 35.8652 16.3204C35.9067 17.3595 35.8876 18.4018 35.8716 19.4409C35.846 21.3171 35.0026 22.183 33.1559 22.2536C31.3411 22.3241 30.4327 23.2649 30.4306 25.0758C30.4306 25.6595 30.437 26.24 30.4306 26.8237C30.405 29.2323 29.1334 30.5151 26.7627 30.5312C26.3059 30.5312 25.849 30.5312 25.3953 30.5312L25.3921 30.528ZM17.9127 30.4766C18.7018 30.4766 19.491 30.4959 20.277 30.4734C21.3505 30.4414 21.9927 29.9795 21.932 28.7897C21.8936 28.0424 21.9032 27.292 21.9224 26.5415C21.9863 23.8475 23.5614 22.2215 26.2292 22.1028C26.9736 22.0708 27.7212 22.1125 28.4689 22.0932C29.7852 22.0579 30.3539 21.5095 30.3794 20.1946C30.4082 18.6969 30.4018 17.1991 30.3794 15.7014C30.3603 14.4442 29.8203 13.9503 28.52 13.9054C27.5263 13.8733 26.5263 13.8926 25.5423 13.7868C23.6221 13.5815 22.3633 12.3628 22.1173 10.4225C21.9927 9.43789 22.047 8.43085 22.0214 7.43344C21.9831 6.03834 21.5134 5.53802 20.1651 5.51878C18.6731 5.49954 17.1778 5.50275 15.6858 5.51878C14.4461 5.53161 13.8423 6.08003 13.772 7.31477C13.7209 8.2288 13.772 9.14604 13.756 10.0601C13.7145 12.0228 12.3822 13.5494 10.4301 13.7739C9.40449 13.8926 8.36293 13.8669 7.32776 13.9022C6.02101 13.9503 5.52579 14.425 5.50982 15.7207C5.49065 17.2184 5.49384 18.7161 5.50982 20.2138C5.5226 21.5769 6.01463 22.0515 7.40444 22.09C8.35654 22.1157 9.31822 22.0644 10.2607 22.1766C12.4333 22.4332 13.7369 23.9341 13.7592 26.1085C13.7688 26.9809 13.7369 27.8564 13.7656 28.7288C13.8072 29.8641 14.3822 30.4831 15.5548 30.4734C16.344 30.467 17.1299 30.4734 17.9191 30.4734L17.9127 30.4766Z" fill="#31A8E6"/>
</svg>

